<svg data-v-239e2d7e="" version="1.0" xmlns="http://www.w3.org/2000/svg" xmlns:xlink="http://www.w3.org/1999/xlink" width="100%" height="100%" viewBox="0 0 340.000000 250.000000" preserveAspectRatio="xMidYMid meet" color-interpolation-filters="sRGB" class="el-tooltip" style="margin: auto;"><rect data-v-239e2d7e="" x="0" y="0" width="100%" height="100%" fill="#fff" fill-opacity="1" class="background"></rect>  <g data-v-239e2d7e="" fill="#50bcb6" class="icon-text-wrapper icon-svg-group iconsvg" transform="translate(31.06500244140625,95)" mask="url(#d10ca6fa-b5d7-444d-9cc6-f5721d3e4031)"><g fill="#50bcb6" class="iconsvg-imagesvg icon_container" transform="translate(0,0)"><rect fill="#50bcb6" fill-opacity="0" stroke-width="2" x="0" y="0" width="60" height="60" class="image-rect"></rect> <svg viewBox="0 0 60.1 60.1" x="0" y="0" width="60" height="60" class="image-svg-svg bn"><g hollow-target="iconBnOutline"><g mask="url(#3e7eb26f-f265-4cfb-9897-2e2ebd649605)"><svg xmlns="http://www.w3.org/2000/svg" xmlns:xlink="http://www.w3.org/1999/xlink" version="1.1" x="0.05000000000000071" y="0.05000000000000071" viewBox="5 5 90 90" style="enable-background:new 0 0 100 100;" xml:space="preserve" width="60" height="60" filtersec="colorsf3544421921"><path d="M50,5C25.187,5,5,25.187,5,50s20.187,45,45,45s45-20.187,45-45S74.813,5,50,5z M50,92C26.841,92,8,73.159,8,50  S26.841,8,50,8s42,18.841,42,42S73.159,92,50,92z"></path><path d="M50,11c-21.505,0-39,17.495-39,39s17.495,39,39,39s39-17.495,39-39S71.505,11,50,11z M50,86c-19.851,0-36-16.149-36-36  s16.149-36,36-36s36,16.149,36,36S69.851,86,50,86z"></path><path d="M50,17c-18.196,0-33,14.804-33,33s14.804,33,33,33s33-14.804,33-33S68.196,17,50,17z M50,80c-16.542,0-30-13.458-30-30  s13.458-30,30-30s30,13.458,30,30S66.542,80,50,80z"></path></svg></g> <g filter="url(#colors271979059)"><svg fill="#000000" xmlns="http://www.w3.org/2000/svg" viewBox="0 0 68 68" x="0" y="0" width="60.1" height="60.1"><path fill="#000000" fill-rule="evenodd" d="M90,244 C71.2223185,244 56,228.777681 56,210 L56,178 C56,176.895431 56.8954305,176 58,176 L90,176 C108.777681,176 124,191.222319 124,210 C124,228.777681 108.777681,244 90,244 Z M90,234 C103.254834,234 114,223.254834 114,210 C114,196.745166 103.254834,186 90,186 L68,186 C66.8954305,186 66,186.895431 66,188 L66,210 C66,223.254834 76.745166,234 90,234 Z M70,210 L70,190 L90,190 C101.045695,190 110,198.954305 110,210 C110,221.045695 101.045695,230 90,230 C78.954305,230 70,221.045695 70,210 Z" transform="translate(-56 -176)"></path></svg></g></g><mask id="3e7eb26f-f265-4cfb-9897-2e2ebd649605"><g fill="white"><svg xmlns="http://www.w3.org/2000/svg" xmlns:xlink="http://www.w3.org/1999/xlink" version="1.1" x="0.05000000000000071" y="0.05000000000000071" viewBox="5 5 90 90" style="enable-background:new 0 0 100 100;" xml:space="preserve" width="60" height="60" filtersec="colorsf3544421921"><path d="M50,5C25.187,5,5,25.187,5,50s20.187,45,45,45s45-20.187,45-45S74.813,5,50,5z M50,92C26.841,92,8,73.159,8,50  S26.841,8,50,8s42,18.841,42,42S73.159,92,50,92z"></path><path d="M50,11c-21.505,0-39,17.495-39,39s17.495,39,39,39s39-17.495,39-39S71.505,11,50,11z M50,86c-19.851,0-36-16.149-36-36  s16.149-36,36-36s36,16.149,36,36S69.851,86,50,86z"></path><path d="M50,17c-18.196,0-33,14.804-33,33s14.804,33,33,33s33-14.804,33-33S68.196,17,50,17z M50,80c-16.542,0-30-13.458-30-30  s13.458-30,30-30s30,13.458,30,30S66.542,80,50,80z"></path></svg></g> <g fill="black" filter="url(#fcdbd805-2224-44a8-9fb9-a902a7695a34)"><svg xmlns="http://www.w3.org/2000/svg" viewBox="0 0 68 68" x="0" y="0" width="60.1" height="60.1"><path fill-rule="evenodd" d="M90,244 C71.2223185,244 56,228.777681 56,210 L56,178 C56,176.895431 56.8954305,176 58,176 L90,176 C108.777681,176 124,191.222319 124,210 C124,228.777681 108.777681,244 90,244 Z M90,234 C103.254834,234 114,223.254834 114,210 C114,196.745166 103.254834,186 90,186 L68,186 C66.8954305,186 66,186.895431 66,188 L66,210 C66,223.254834 76.745166,234 90,234 Z M70,210 L70,190 L90,190 C101.045695,190 110,198.954305 110,210 C110,221.045695 101.045695,230 90,230 C78.954305,230 70,221.045695 70,210 Z" transform="translate(-56 -176)"></path></svg></g><defs><filter id="fcdbd805-2224-44a8-9fb9-a902a7695a34"><feGaussianBlur in="SourceGraphic" stdDeviation="1.26"></feGaussianBlur><feComponentTransfer><feFuncA type="discrete" tableValues="0 1 1 1 1 1 1 1 1 1 1 1 1 1 0"></feFuncA></feComponentTransfer></filter></defs></mask></svg> <defs><filter id="colors271979059"><feColorMatrix type="matrix" values="0 0 0 0 0.3125  0 0 0 0 0.734375  0 0 0 0 0.7109375  0 0 0 1 0" class="icon-fecolormatrix"></feColorMatrix></filter> <filter id="colorsf3544421921"><feColorMatrix type="matrix" values="0 0 0 0 0.99609375  0 0 0 0 0.99609375  0 0 0 0 0.99609375  0 0 0 1 0" class="icon-fecolormatrix"></feColorMatrix></filter> <filter id="colorsb5281790324"><feColorMatrix type="matrix" values="0 0 0 0 0  0 0 0 0 0  0 0 0 0 0  0 0 0 1 0" class="icon-fecolormatrix"></feColorMatrix></filter></defs></g> <g transform="translate(67,4.780000686645508)"><g fill-rule="" class="tp-name iconsvg-namesvg"><g><path d="M4.95-36.08L4.95 0L25.30 0L25.30-3.90L9.52-3.90L9.52-36.08ZM33.55-32.23C34.43-32.23 35.17-32.51 35.78-33.05C36.38-33.60 36.69-34.30 36.69-35.15C36.69-36.02 36.38-36.73 35.78-37.26C35.17-37.79 34.43-38.06 33.55-38.06C32.67-38.06 31.93-37.79 31.32-37.26C30.72-36.73 30.41-36.02 30.41-35.15C30.41-34.30 30.72-33.60 31.32-33.05C31.93-32.51 32.67-32.23 33.55-32.23ZM31.24-26.73L31.24 0L35.75 0L35.75-26.73ZM42.84-13.31C42.84-8.84 43.84-5.39 45.84-2.97C47.84-0.55 50.53 0.66 53.90 0.66C55.44 0.66 56.90 0.30 58.27-0.41C59.65-1.13 60.87-1.98 61.93-2.97L61.71 1.76L61.71 11.28L66.28 11.28L66.28-26.73L62.64-26.73L62.20-24.20L62.09-24.20C60.88-25.26 59.69-26.06 58.52-26.59C57.35-27.12 55.99-27.39 54.45-27.39C52.91-27.39 51.44-27.06 50.05-26.40C48.66-25.74 47.43-24.80 46.36-23.59C45.30-22.39 44.45-20.91 43.81-19.17C43.17-17.43 42.84-15.47 42.84-13.31ZM47.52-13.37C47.52-14.90 47.72-16.30 48.13-17.55C48.53-18.79 49.08-19.86 49.77-20.76C50.47-21.66 51.29-22.36 52.22-22.85C53.16-23.35 54.16-23.59 55.22-23.59C56.32-23.59 57.39-23.38 58.44-22.96C59.48-22.54 60.57-21.82 61.71-20.79L61.71-6.82C60.61-5.57 59.51-4.65 58.41-4.04C57.31-3.44 56.14-3.14 54.89-3.14C52.54-3.14 50.73-4.03 49.45-5.83C48.16-7.63 47.52-10.14 47.52-13.37ZM74.63-26.73L74.63-9.79C74.63-6.34 75.29-3.74 76.59-1.98C77.89-0.22 79.97 0.66 82.83 0.66C84.70 0.66 86.32 0.22 87.70-0.66C89.07-1.54 90.38-2.71 91.63-4.18L91.79-4.18L92.18 0L95.92 0L95.92-26.73L91.41-26.73L91.41-7.75C90.13-6.18 88.95-5.03 87.89-4.32C86.83-3.60 85.60-3.25 84.20-3.25C82.44-3.25 81.17-3.80 80.38-4.92C79.59-6.04 79.20-7.87 79.20-10.39L79.20-26.73ZM107.25-32.23C108.13-32.23 108.87-32.51 109.48-33.05C110.08-33.60 110.38-34.30 110.38-35.15C110.38-36.02 110.08-36.73 109.48-37.26C108.87-37.79 108.13-38.06 107.25-38.06C106.37-38.06 105.63-37.79 105.02-37.26C104.42-36.73 104.11-36.02 104.11-35.15C104.11-34.30 104.42-33.60 105.02-33.05C105.63-32.51 106.37-32.23 107.25-32.23ZM104.94-26.73L104.94 0L109.45 0L109.45-26.73ZM116.54-13.31C116.54-8.84 117.54-5.39 119.54-2.97C121.54-0.55 124.23 0.66 127.60 0.66C129.18 0.66 130.65 0.28 132.03-0.47C133.40-1.22 134.62-2.11 135.69-3.14L135.85-3.14L136.23 0L139.97 0L139.97-39.16L135.41-39.16L135.41-28.88L135.63-24.31C134.46-25.26 133.30-26.02 132.16-26.57C131.03-27.11 129.69-27.39 128.15-27.39C126.61-27.39 125.14-27.06 123.75-26.40C122.36-25.74 121.13-24.80 120.06-23.59C119.00-22.39 118.15-20.91 117.51-19.17C116.87-17.43 116.54-15.47 116.54-13.31ZM121.22-13.37C121.22-14.90 121.42-16.30 121.82-17.55C122.23-18.79 122.78-19.86 123.47-20.76C124.17-21.66 124.99-22.36 125.92-22.85C126.86-23.35 127.86-23.59 128.92-23.59C130.02-23.59 131.09-23.38 132.14-22.96C133.18-22.54 134.27-21.82 135.41-20.79L135.41-6.82C134.31-5.57 133.21-4.65 132.11-4.04C131.01-3.44 129.84-3.14 128.59-3.14C126.24-3.14 124.43-4.03 123.14-5.83C121.86-7.63 121.22-10.14 121.22-13.37ZM148.61-26.73L148.61-9.79C148.61-6.34 149.26-3.74 150.56-1.98C151.86-0.22 153.94 0.66 156.80 0.66C158.67 0.66 160.30 0.22 161.67-0.66C163.05-1.54 164.36-2.71 165.60-4.18L165.77-4.18L166.15 0L169.89 0L169.89-26.73L165.38-26.73L165.38-7.75C164.10-6.18 162.93-5.03 161.86-4.32C160.80-3.60 159.57-3.25 158.18-3.25C156.42-3.25 155.15-3.80 154.36-4.92C153.57-6.04 153.17-7.87 153.17-10.39L153.17-26.73ZM178.91-26.73L178.91 0L183.42 0L183.42-19.36C185.88-22.11 188.12-23.48 190.13-23.48C191.86-23.48 193.12-22.93 193.93-21.81C194.74-20.69 195.14-18.86 195.14-16.34L195.14 0L199.65 0L199.65-19.36C202.11-22.11 204.34-23.48 206.36-23.48C208.05-23.48 209.29-22.93 210.10-21.81C210.91-20.69 211.31-18.86 211.31-16.34L211.31 0L215.82 0L215.82-16.94C215.82-20.39 215.15-22.99 213.81-24.75C212.47-26.51 210.43-27.39 207.68-27.39C206.03-27.39 204.50-26.92 203.09-25.99C201.68-25.05 200.27-23.82 198.88-22.27C198.33-23.89 197.48-25.14 196.32-26.04C195.17-26.94 193.56-27.39 191.51-27.39C189.90-27.39 188.40-26.96 187.03-26.10C185.65-25.24 184.38-24.16 183.20-22.88L183.04-22.88L182.65-26.73Z" transform="translate(-4.95, 39.160000000000004)"></path></g> <!----> <!----> <!----> <!----> <!----> <!----> <!----></g> <!----></g><rect width="289.8699951171875" height="72" transform="translate(-6, -6)" style="pointer-events:none;" fill="url(#903577cc36cdaf9926377d6321358044)"></rect></g><defs v-gra="od"><linearGradient x1="0" y1="0" x2="1" y2="0"><stop offset="0%" stop-color="#50bc5c"></stop><stop offset="100%" stop-color="#6dc7c2"></stop></linearGradient><linearGradient x1="0" y1="0" x2="1" y2="1" id="903577cc36cdaf9926377d6321358044"><stop offset="0%" stop-color="#50bc5c"></stop><stop offset="100%" stop-color="#6dc7c2"></stop></linearGradient><filter id="42443b3f1de60f6b6fd3b6a9844b4764" filterUnits="userSpaceOnUse"><feColorMatrix type="matrix" values="0 0 0 0 0.99609375  0 0 0 0 0.99609375  0 0 0 0 0.99609375  0 0 0 1 0"></feColorMatrix></filter></defs><mask v-gra="om" id="d10ca6fa-b5d7-444d-9cc6-f5721d3e4031"><g data-v-239e2d7e="" fill="#50bcb6" class="icon-text-wrapper icon-svg-group iconsvg" filter="url(#42443b3f1de60f6b6fd3b6a9844b4764)"><g fill="#50bcb6" class="iconsvg-imagesvg icon_container" transform="translate(0,0)"><rect fill="#50bcb6" fill-opacity="0" stroke-width="2" x="0" y="0" width="60" height="60" class="image-rect"></rect> <svg viewBox="0 0 60.1 60.1" x="0" y="0" width="60" height="60" class="image-svg-svg bn"><g hollow-target="iconBnOutline"><g mask="url(#3e7eb26f-f265-4cfb-9897-2e2ebd649605)"><svg xmlns="http://www.w3.org/2000/svg" xmlns:xlink="http://www.w3.org/1999/xlink" version="1.1" x="0.05000000000000071" y="0.05000000000000071" viewBox="5 5 90 90" style="enable-background:new 0 0 100 100;" xml:space="preserve" width="60" height="60" filtersec="colorsf3544421921"><path d="M50,5C25.187,5,5,25.187,5,50s20.187,45,45,45s45-20.187,45-45S74.813,5,50,5z M50,92C26.841,92,8,73.159,8,50  S26.841,8,50,8s42,18.841,42,42S73.159,92,50,92z"></path><path d="M50,11c-21.505,0-39,17.495-39,39s17.495,39,39,39s39-17.495,39-39S71.505,11,50,11z M50,86c-19.851,0-36-16.149-36-36  s16.149-36,36-36s36,16.149,36,36S69.851,86,50,86z"></path><path d="M50,17c-18.196,0-33,14.804-33,33s14.804,33,33,33s33-14.804,33-33S68.196,17,50,17z M50,80c-16.542,0-30-13.458-30-30  s13.458-30,30-30s30,13.458,30,30S66.542,80,50,80z"></path></svg></g> <g filter="url(#colors271979059)"><svg fill="#000000" xmlns="http://www.w3.org/2000/svg" viewBox="0 0 68 68" x="0" y="0" width="60.1" height="60.1"><path fill="#000000" fill-rule="evenodd" d="M90,244 C71.2223185,244 56,228.777681 56,210 L56,178 C56,176.895431 56.8954305,176 58,176 L90,176 C108.777681,176 124,191.222319 124,210 C124,228.777681 108.777681,244 90,244 Z M90,234 C103.254834,234 114,223.254834 114,210 C114,196.745166 103.254834,186 90,186 L68,186 C66.8954305,186 66,186.895431 66,188 L66,210 C66,223.254834 76.745166,234 90,234 Z M70,210 L70,190 L90,190 C101.045695,190 110,198.954305 110,210 C110,221.045695 101.045695,230 90,230 C78.954305,230 70,221.045695 70,210 Z" transform="translate(-56 -176)"></path></svg></g></g><mask id="3e7eb26f-f265-4cfb-9897-2e2ebd649605"><g fill="white"><svg xmlns="http://www.w3.org/2000/svg" xmlns:xlink="http://www.w3.org/1999/xlink" version="1.1" x="0.05000000000000071" y="0.05000000000000071" viewBox="5 5 90 90" style="enable-background:new 0 0 100 100;" xml:space="preserve" width="60" height="60" filtersec="colorsf3544421921"><path d="M50,5C25.187,5,5,25.187,5,50s20.187,45,45,45s45-20.187,45-45S74.813,5,50,5z M50,92C26.841,92,8,73.159,8,50  S26.841,8,50,8s42,18.841,42,42S73.159,92,50,92z"></path><path d="M50,11c-21.505,0-39,17.495-39,39s17.495,39,39,39s39-17.495,39-39S71.505,11,50,11z M50,86c-19.851,0-36-16.149-36-36  s16.149-36,36-36s36,16.149,36,36S69.851,86,50,86z"></path><path d="M50,17c-18.196,0-33,14.804-33,33s14.804,33,33,33s33-14.804,33-33S68.196,17,50,17z M50,80c-16.542,0-30-13.458-30-30  s13.458-30,30-30s30,13.458,30,30S66.542,80,50,80z"></path></svg></g> <g fill="black" filter="url(#fcdbd805-2224-44a8-9fb9-a902a7695a34)"><svg xmlns="http://www.w3.org/2000/svg" viewBox="0 0 68 68" x="0" y="0" width="60.1" height="60.1"><path fill-rule="evenodd" d="M90,244 C71.2223185,244 56,228.777681 56,210 L56,178 C56,176.895431 56.8954305,176 58,176 L90,176 C108.777681,176 124,191.222319 124,210 C124,228.777681 108.777681,244 90,244 Z M90,234 C103.254834,234 114,223.254834 114,210 C114,196.745166 103.254834,186 90,186 L68,186 C66.8954305,186 66,186.895431 66,188 L66,210 C66,223.254834 76.745166,234 90,234 Z M70,210 L70,190 L90,190 C101.045695,190 110,198.954305 110,210 C110,221.045695 101.045695,230 90,230 C78.954305,230 70,221.045695 70,210 Z" transform="translate(-56 -176)"></path></svg></g><defs><filter id="fcdbd805-2224-44a8-9fb9-a902a7695a34"><feGaussianBlur in="SourceGraphic" stdDeviation="1.26"></feGaussianBlur><feComponentTransfer><feFuncA type="discrete" tableValues="0 1 1 1 1 1 1 1 1 1 1 1 1 1 0"></feFuncA></feComponentTransfer></filter></defs></mask></svg> <defs><filter id="colors271979059"><feColorMatrix type="matrix" values="0 0 0 0 0.3125  0 0 0 0 0.734375  0 0 0 0 0.7109375  0 0 0 1 0" class="icon-fecolormatrix"></feColorMatrix></filter> <filter id="colorsf3544421921"><feColorMatrix type="matrix" values="0 0 0 0 0.99609375  0 0 0 0 0.99609375  0 0 0 0 0.99609375  0 0 0 1 0" class="icon-fecolormatrix"></feColorMatrix></filter> <filter id="colorsb5281790324"><feColorMatrix type="matrix" values="0 0 0 0 0  0 0 0 0 0  0 0 0 0 0  0 0 0 1 0" class="icon-fecolormatrix"></feColorMatrix></filter></defs></g> <g transform="translate(67,4.780000686645508)"><g fill-rule="" class="tp-name iconsvg-namesvg"><g><path d="M4.95-36.08L4.95 0L25.30 0L25.30-3.90L9.52-3.90L9.52-36.08ZM33.55-32.23C34.43-32.23 35.17-32.51 35.78-33.05C36.38-33.60 36.69-34.30 36.69-35.15C36.69-36.02 36.38-36.73 35.78-37.26C35.17-37.79 34.43-38.06 33.55-38.06C32.67-38.06 31.93-37.79 31.32-37.26C30.72-36.73 30.41-36.02 30.41-35.15C30.41-34.30 30.72-33.60 31.32-33.05C31.93-32.51 32.67-32.23 33.55-32.23ZM31.24-26.73L31.24 0L35.75 0L35.75-26.73ZM42.84-13.31C42.84-8.84 43.84-5.39 45.84-2.97C47.84-0.55 50.53 0.66 53.90 0.66C55.44 0.66 56.90 0.30 58.27-0.41C59.65-1.13 60.87-1.98 61.93-2.97L61.71 1.76L61.71 11.28L66.28 11.28L66.28-26.73L62.64-26.73L62.20-24.20L62.09-24.20C60.88-25.26 59.69-26.06 58.52-26.59C57.35-27.12 55.99-27.39 54.45-27.39C52.91-27.39 51.44-27.06 50.05-26.40C48.66-25.74 47.43-24.80 46.36-23.59C45.30-22.39 44.45-20.91 43.81-19.17C43.17-17.43 42.84-15.47 42.84-13.31ZM47.52-13.37C47.52-14.90 47.72-16.30 48.13-17.55C48.53-18.79 49.08-19.86 49.77-20.76C50.47-21.66 51.29-22.36 52.22-22.85C53.16-23.35 54.16-23.59 55.22-23.59C56.32-23.59 57.39-23.38 58.44-22.96C59.48-22.54 60.57-21.82 61.71-20.79L61.71-6.82C60.61-5.57 59.51-4.65 58.41-4.04C57.31-3.44 56.14-3.14 54.89-3.14C52.54-3.14 50.73-4.03 49.45-5.83C48.16-7.63 47.52-10.14 47.52-13.37ZM74.63-26.73L74.63-9.79C74.63-6.34 75.29-3.74 76.59-1.98C77.89-0.22 79.97 0.66 82.83 0.66C84.70 0.66 86.32 0.22 87.70-0.66C89.07-1.54 90.38-2.71 91.63-4.18L91.79-4.18L92.18 0L95.92 0L95.92-26.73L91.41-26.73L91.41-7.75C90.13-6.18 88.95-5.03 87.89-4.32C86.83-3.60 85.60-3.25 84.20-3.25C82.44-3.25 81.17-3.80 80.38-4.92C79.59-6.04 79.20-7.87 79.20-10.39L79.20-26.73ZM107.25-32.23C108.13-32.23 108.87-32.51 109.48-33.05C110.08-33.60 110.38-34.30 110.38-35.15C110.38-36.02 110.08-36.73 109.48-37.26C108.87-37.79 108.13-38.06 107.25-38.06C106.37-38.06 105.63-37.79 105.02-37.26C104.42-36.73 104.11-36.02 104.11-35.15C104.11-34.30 104.42-33.60 105.02-33.05C105.63-32.51 106.37-32.23 107.25-32.23ZM104.94-26.73L104.94 0L109.45 0L109.45-26.73ZM116.54-13.31C116.54-8.84 117.54-5.39 119.54-2.97C121.54-0.55 124.23 0.66 127.60 0.66C129.18 0.66 130.65 0.28 132.03-0.47C133.40-1.22 134.62-2.11 135.69-3.14L135.85-3.14L136.23 0L139.97 0L139.97-39.16L135.41-39.16L135.41-28.88L135.63-24.31C134.46-25.26 133.30-26.02 132.16-26.57C131.03-27.11 129.69-27.39 128.15-27.39C126.61-27.39 125.14-27.06 123.75-26.40C122.36-25.74 121.13-24.80 120.06-23.59C119.00-22.39 118.15-20.91 117.51-19.17C116.87-17.43 116.54-15.47 116.54-13.31ZM121.22-13.37C121.22-14.90 121.42-16.30 121.82-17.55C122.23-18.79 122.78-19.86 123.47-20.76C124.17-21.66 124.99-22.36 125.92-22.85C126.86-23.35 127.86-23.59 128.92-23.59C130.02-23.59 131.09-23.38 132.14-22.96C133.18-22.54 134.27-21.82 135.41-20.79L135.41-6.82C134.31-5.57 133.21-4.65 132.11-4.04C131.01-3.44 129.84-3.14 128.59-3.14C126.24-3.14 124.43-4.03 123.14-5.83C121.86-7.63 121.22-10.14 121.22-13.37ZM148.61-26.73L148.61-9.79C148.61-6.34 149.26-3.74 150.56-1.98C151.86-0.22 153.94 0.66 156.80 0.66C158.67 0.66 160.30 0.22 161.67-0.66C163.05-1.54 164.36-2.71 165.60-4.18L165.77-4.18L166.15 0L169.89 0L169.89-26.73L165.38-26.73L165.38-7.75C164.10-6.18 162.93-5.03 161.86-4.32C160.80-3.60 159.57-3.25 158.18-3.25C156.42-3.25 155.15-3.80 154.36-4.92C153.57-6.04 153.17-7.87 153.17-10.39L153.17-26.73ZM178.91-26.73L178.91 0L183.42 0L183.42-19.36C185.88-22.11 188.12-23.48 190.13-23.48C191.86-23.48 193.12-22.93 193.93-21.81C194.74-20.69 195.14-18.86 195.14-16.34L195.14 0L199.65 0L199.65-19.36C202.11-22.11 204.34-23.48 206.36-23.48C208.05-23.48 209.29-22.93 210.10-21.81C210.91-20.69 211.31-18.86 211.31-16.34L211.31 0L215.82 0L215.82-16.94C215.82-20.39 215.15-22.99 213.81-24.75C212.47-26.51 210.43-27.39 207.68-27.39C206.03-27.39 204.50-26.92 203.09-25.99C201.68-25.05 200.27-23.82 198.88-22.27C198.33-23.89 197.48-25.14 196.32-26.04C195.17-26.94 193.56-27.39 191.51-27.39C189.90-27.39 188.40-26.96 187.03-26.10C185.65-25.24 184.38-24.16 183.20-22.88L183.04-22.88L182.65-26.73Z" transform="translate(-4.95, 39.160000000000004)"></path></g> <!----> <!----> <!----> <!----> <!----> <!----> <!----></g> <!----></g></g></mask></svg>