<svg fill="#50bcb6" xmlns="http://www.w3.org/2000/svg" viewBox="0 0 68 68" x="0" y="0" width="60.1" height="60.1"><path fill-rule="evenodd" d="M90,244 C71.2223185,244 56,228.777681 56,210 L56,178 C56,176.895431 56.8954305,176 58,176 L90,176 C108.777681,176 124,191.222319 124,210 C124,228.777681 108.777681,244 90,244 Z M90,234 C103.254834,234 114,223.254834 114,210 C114,196.745166 103.254834,186 90,186 L68,186 C66.8954305,186 66,186.895431 66,188 L66,210 C66,223.254834 76.745166,234 90,234 Z M70,210 L70,190 L90,190 C101.045695,190 110,198.954305 110,210 C110,221.045695 101.045695,230 90,230 C78.954305,230 70,221.045695 70,210 Z" transform="translate(-56 -176)"></path></svg>
